. 
  
http://www.torrenting.com/        :     Greatest Movie Tracker on The Net!!!
 
http://www.Torrenting.com          :     Once & For all ;)


               www . Torrenting . Com 

(((((((((((((= Enjoy No RAR releases =))))))))))))))))))))


...................................NFO:....................................

.








































          
          
              
              
                    
                    
                    
                    

Born.To.Ride.2011.DVDRiP.XviD.AC3-SiC

Poster:
[img]http://leetleech.org/images/75249937750599182783.jpg[/img]

IMDB Link:
http://www.imdb.com/title/tt1721491/

Description:
The stars of Starship Troopers are back in action! Mike (Casper Van Dien) decides to hit the road on his refurbished classic motorcycle along with best buddy Alex (Patrick Muldoon), but their trek takes a surprising turn when they become involved in a plan involving political blackmail, corruption, and dirty money. Carrying evidence that could get them killed at any minute, the boys are chased on the open road but turn their skills to their own advantage. William Forsythe (Raising Arizona) and Theresa Russell (Wild Things) also star in this gun-blazing, rip-roaring adventure from the director of Every Which Way But Loose youll never forget! 

General
Complete name                    : Born.To.Ride.2011.DVDRiP.XviD.AC3-SiC.avi
Format                           : AVI
Format/Info                      : Audio Video Interleave
File size                        : 1.27 GiB
Duration                         : 1h 30mn
Overall bit rate                 : 2 024 Kbps
Writing library                  : VirtualDub build 32839/release

Video
ID                               : 0
Format                           : MPEG-4 Visual
Format profile                   : Advanced Simple@L5
Format settings, BVOP            : 1
Format settings, QPel            : No
Format settings, GMC             : No warppoints
Format settings, Matrix          : Default (H.263)
Codec ID                         : XVID
Codec ID/Hint                    : XviD
Duration                         : 1h 30mn
Bit rate                         : 1 700 Kbps
Width                            : 720 pixels
Height                           : 384 pixels
Display aspect ratio             : 1.875
Frame rate                       : 23.976 fps
Color space                      : YUV
Chroma subsampling               : 4:2:0
Bit depth                        : 8 bits
Scan type                        : Progressive
Compression mode                 : Lossy
Bits/(Pixel*Frame)               : 0.256
Stream size                      : 1.07 GiB (84%)
Writing library                  : XviD 1.2.1 (UTC 2008-12-04)

Audio
ID                               : 1
Format                           : AC-3
Format/Info                      : Audio Coding 3
Mode extension                   : CM (complete main)
Codec ID                         : 2000
Duration                         : 1h 30mn
Bit rate mode                    : Constant
Bit rate                         : 320 Kbps
Channel(s)                       : 6 channels
Channel positions                : Front: L C R, Side: L R, LFE
Sampling rate                    : 48.0 KHz
Bit depth                        : 16 bits
Compression mode                 : Lossy
Delay relative to video          : 500ms
Stream size                      : 206 MiB (16%)
Alignment                        : Split accross interleaves



Screenshots:
[img]http://leetleech.org/images/09332606367571922776.png[/img]
[img]http://leetleech.org/images/51646214311222216302.png[/img]
[img]http://leetleech.org/images/36803824018553469648.png[/img]
[img]http://leetleech.org/images/23304362550674042602.png[/img]
[img]http://leetleech.org/images/27581695557575781356.png[/img]

Note: N/A

Encoder: scumbag

Enjoy!

Respects to CaptainHomey, Cyanide, CM8, Rx, bobwhite, ELEKTRI4KA, Killerhz, XtremE, PA, YeFsTe and everyone in the struggle...